<?xml version="1.0" encoding="UTF-8" standalone="no"?>
<svg
   xmlns="http://www.w3.org/2000/svg"
   height="222"
   width="800"
   xml:space="preserve"
   id="svg2"
   version="1.1"><title
     id="title1257">EGAR Technology logo</title><g
     transform="matrix(7.5288516,0,0,7.5288516,-379.27507,-5402.1508)"
     id="g10"><path
       id="path22"
       style="fill:#ff6c00;fill-opacity:1;fill-rule:nonzero;stroke:none"
       d="m 65.08301,727.10602 c -2.98491,0 -5.40621,2.42389 -5.40621,5.40869 0,2.98486 2.4213,5.40869 5.40621,5.40869 2.98729,0 5.40869,-2.42383 5.40869,-5.40869 0,-2.9848 -2.4214,-5.40869 -5.40869,-5.40869 z m 0.04928,7.8399 c -1.37249,0 -2.48039,-1.11285 -2.48039,-2.48053 0,-1.36963 1.1079,-2.47998 2.48039,-2.47998 1.36971,0 2.48241,1.11035 2.48241,2.47998 0,1.36768 -1.1127,2.48053 -2.48241,2.48053 z" /><path
       id="path24"
       style="fill:#ff6c00;fill-opacity:1;fill-rule:nonzero;stroke:none"
       d="m 56.31689,730.93121 c 0.58101,-3.89892 3.69822,-6.96734 7.61181,-7.48681 0,0 0,-3.79102 0,-3.79102 v 0 -1.48779 h -0.6299 c 0,0 0,1.56402 0,1.56402 -5.4673,0.7793 -9.8076,5.05561 -10.6821,10.49115 0,0 -1.62261,0 -1.62261,0 v 0.70551 c 0,0 5.3228,0.005 5.3228,0.005 z" /><path
       id="path26"
       style="fill:#ff6c00;fill-opacity:1;fill-rule:nonzero;stroke:none"
       d="m 66.561,718.10211 c 0,0 0,5.38666 0,5.38666 3.7862,0.625 6.7613,3.63434 7.3321,7.44244 0,0 5.3672,0 5.3672,0 v -0.64703 c 0,0 -1.6519,0 -1.6519,0 -0.83789,-5.35437 -5.0313,-9.59656 -10.3589,-10.50336 0,0 0,-1.67871 0,-1.67871 z" /><path
       id="path28"
       style="fill:#ff6c00;fill-opacity:1;fill-rule:nonzero;stroke:none"
       d="m 63.9287,741.06012 c -3.9209,-0.52191 -7.0356,-3.59766 -7.61181,-7.49664 0,0 -5.25929,0 -5.25929,0 v 0.60504 c 0,0 1.53661,0 1.53661,0 0.83349,5.47265 5.16609,9.79059 10.64599,10.60205 0,0 0,1.66351 0,1.66351 h 0.6885 v -1.58301 0 c 0,0 0,-3.79095 0,-3.79095 z" /><path
       id="path30"
       style="fill:#ff6c00;fill-opacity:1;fill-rule:nonzero;stroke:none"
       d="m 73.89551,733.56348 c -0.56351,3.8081 -3.54341,6.83014 -7.33451,7.45459 0,0 0,5.35504 0,5.35504 h 0.627 c 0,0 0,-1.63483 0,-1.63483 5.34029,-0.88422 9.55321,-5.1142 10.4131,-10.46667 0,0 1.67139,0 1.67139,0 v -0.71289 c 0,0 -5.37698,0.005 -5.37698,0.005 z" /><path
       id="path32"
       style="fill:#636363;fill-opacity:1;fill-rule:nonzero;stroke:none"
       d="m 97.4478,730.8985 c 0,0 -11.1124,0 -11.1124,0 -1.6616,0 -2.9799,-0.30658 -3.96281,-0.92139 -0.87749,-0.57861 -1.3223,-1.2597 -1.3223,-2.05133 0,-0.35046 0.0972,-0.6914 0.2822,-1.02191 0.18611,-0.3335 0.46931,-0.6275 0.84181,-0.89209 -0.35789,-0.26471 -0.63231,-0.55621 -0.82469,-0.89209 -0.2012,-0.3335 -0.29932,-0.66888 -0.29932,-1.00732 0,-0.77686 0.44481,-1.44581 1.3223,-1.99707 0.98291,-0.625 2.30121,-0.93653 3.96281,-0.93653 0,0 11.1124,0 11.1124,0 v 2.04645 c 0,0 -10.40291,0 -10.40291,0 -0.46919,0 -0.84079,0.0883 -1.11519,0.26215 -0.27299,0.17675 -0.4116,0.38964 -0.4116,0.63964 0,0.23536 0.1338,0.43647 0.3984,0.60791 0.2632,0.16895 0.6382,0.25 1.12839,0.25 0,0 10.40291,0 10.40291,0 v 2.0069 0.0444 c 0,0 -10.9913,0 -10.9913,0 -0.29781,0.0757 -0.52779,0.19819 -0.6933,0.35303 -0.16161,0.1568 -0.2451,0.34039 -0.2451,0.54395 0,0.25244 0.1338,0.46771 0.3984,0.64691 0.2632,0.18121 0.6382,0.27203 1.12839,0.27203 0,0 10.40291,0 10.40291,0 v 2.04639 z" /><path
       id="path34"
       style="fill:#636363;fill-opacity:1;fill-rule:nonzero;stroke:none"
       d="m 115.66409,723.22522 c 0,0 -8.82869,0 -8.82869,0 -1.05369,0 -1.8833,0.28656 -2.4877,0.86029 -0.54249,0.51709 -0.8184,1.14941 -0.8184,1.89941 0,0.76465 0.28079,1.41895 0.83691,1.9654 0.6138,0.6001 1.44339,0.90179 2.47998,0.90179 0,0 1.71681,0 1.71681,0 0,0 2.14449,0 2.14449,0 0.44241,0 0.80621,-0.0957 1.08301,-0.29199 0.25,-0.17871 0.37359,-0.38965 0.37359,-0.62695 0,-0.25739 -0.12359,-0.46576 -0.37359,-0.63965 -0.25,-0.17194 -0.6113,-0.25733 -1.08301,-0.25733 0,0 -2.14449,0 -2.14449,0 v -2.05127 c 0,0 2.8467,0 2.8467,0 1.6479,0 2.9541,0.30616 3.91211,0.91407 0.875,0.56591 1.3125,1.25 1.3125,2.04638 0,0.79645 -0.43262,1.46784 -1.29741,2.01905 -0.9585,0.6275 -2.2695,0.93408 -3.9297,0.93408 0,0 -2.84909,0 -2.84909,0 0,0 -2.43361,0 -2.43361,0 -2.29641,0 -4.105,-0.49024 -5.42821,-1.47803 -1.18849,-0.9068 -1.78269,-2.00195 -1.78269,-3.29346 0,-1.33593 0.5991,-2.47021 1.81101,-3.40179 1.34279,-1.0318 3.1416,-1.54645 5.39259,-1.54645 0,0 9.54689,0 9.54689,0 z" /><path
       id="path36"
       style="fill:#636363;fill-opacity:1;fill-rule:nonzero;stroke:none"
       d="m 132.1104,730.8985 c 0,0 4.6147,0 4.6147,0 -0.58589,-0.92432 -1.1641,-1.84082 -1.7412,-2.75488 -1.04539,-1.63434 -1.88971,-2.93061 -2.5269,-3.88434 -0.914,-1.34516 -1.4897,-2.08777 -1.7299,-2.2348 -0.3702,-0.27686 -0.9278,-0.48047 -1.66561,-0.62989 -0.73869,-0.14209 -1.5361,-0.21582 -2.38669,-0.21582 -0.8638,0 -1.6641,0.0737 -2.3945,0.21582 -0.7339,0.14942 -1.29739,0.35303 -1.6909,0.62989 -0.21199,0.16162 -0.7769,0.91162 -1.69929,2.25683 -0.8335,1.23291 -1.68601,2.51709 -2.55762,3.86231 -0.77779,1.22796 -1.34668,2.14935 -1.71039,2.75488 0,0 4.6723,0 4.6723,0 l 2.0181,-3.00733 h 6.74071 z m -7.38869,-5.11719 c 0,0 1.56099,-2.33539 1.56099,-2.33539 0.0674,-0.0714 0.20219,-0.10791 0.4043,-0.10791 0.19239,0 0.3027,0.0366 0.32859,0.10791 0,0 1.59771,2.33539 1.59771,2.33539 z" /><path
       id="path38"
       style="fill:#636363;fill-opacity:1;fill-rule:nonzero;stroke:none"
       d="m 150.7222,726.88678 c 0.8354,-0.14209 1.5439,-0.3999 2.12691,-0.76221 0.87008,-0.54687 1.30619,-1.2207 1.30619,-2.01709 0,-0.794 -0.4434,-1.46527 -1.3233,-2.02197 -0.96291,-0.6001 -2.27679,-0.90674 -3.9331,-0.90674 0,0 -11.1103,0 -11.1103,0 v 2.04645 h 0.005 c 0,0 0,4.28845 0,4.28845 -0.002,0.0542 -0.005,0.10553 -0.005,0.15973 0,0 0,3.20508 0,3.20508 h 4.2446 v -3.78607 c 0,0 1.18019,-0.007 1.18019,-0.007 2.12941,0.15186 7.12641,0.83838 7.08451,3.88428 0,0 3.9824,0 3.9824,0 0,0 -0.3135,-2.84033 -3.5581,-4.08252 z m -8.7027,-1.875 c 0,0 0,-1.78656 0,-1.78656 0,0 6.149,0 6.149,0 0.4878,0 0.8725,0.0957 1.1469,0.28406 0.25,0.16461 0.3775,0.36773 0.3775,0.61773 0,0.23536 -0.1275,0.43647 -0.3775,0.59821 -0.2744,0.17377 -0.6591,0.2597 -1.1469,0.2597 0,0 -5.2847,0 -5.2847,0 -0.3003,0 -0.58841,0.01 -0.8643,0.0269 z" /><path
       id="path40"
       style="fill:#636363;fill-opacity:1;fill-rule:nonzero;stroke:none"
       d="m 84.6772,738.66461 c 0,0 -0.04491,0.15918 -0.04491,0.15918 -0.03558,0.0957 -0.13719,0.14209 -0.30029,0.14209 0,0 -0.7744,0 -0.7744,0 -0.06151,0 -0.125,0.0146 -0.18501,0.0493 -0.06738,0.0269 -0.10399,0.061 -0.11038,0.1001 0,0 -0.87842,2.70562 -0.87842,2.70562 -0.03569,0.20105 0.14551,0.30658 0.53662,0.30658 0,0 0.37988,0 0.37988,0 0.15041,0 0.2168,0.044 0.1958,0.13721 0,0 -0.03659,0.14941 -0.03659,0.14941 -0.0269,0.10309 -0.1275,0.15186 -0.3135,0.15186 0,0 -0.3799,0 -0.3799,0 -0.53661,0 -0.918,-0.0811 -1.1396,-0.24756 -0.15189,-0.11285 -0.2217,-0.24512 -0.2193,-0.40674 0,-0.0342 0.0059,-0.0664 0.0157,-0.0933 0,0 0.88859,-2.6958 0.88859,-2.6958 0.01322,-0.039 0,-0.0708 -0.04049,-0.10254 -0.04441,-0.0396 -0.103,-0.0542 -0.1704,-0.0542 0,0 -0.13719,0 -0.13719,0 -0.065,0 -0.11531,-0.0147 -0.1582,-0.0464 -0.04151,-0.0322 -0.05521,-0.0615 -0.04151,-0.10058 0,0 0.05271,-0.14942 0.05271,-0.14942 0.0049,-0.0391 0.04049,-0.0688 0.10159,-0.0957 0.0639,-0.0342 0.12741,-0.0488 0.1987,-0.0488 0,0 0.13089,0 0.13089,0 0.05762,0 0.12012,-0.0146 0.18651,-0.0469 0.06489,-0.0317 0.10011,-0.0659 0.1098,-0.1001 0,0 0.1021,-0.31152 0.1021,-0.31152 0.01559,-0.0415 0,-0.0757 -0.0454,-0.10309 -0.04539,-0.0244 -0.10161,-0.0341 -0.1665,-0.0293 0,0 -0.1314,0 -0.1314,0 -0.05999,0.005 -0.1137,-0.007 -0.1508,-0.0439 -0.0401,-0.0342 -0.0538,-0.0664 -0.0464,-0.11029 0,0 0.0405,-0.14954 0.0405,-0.14954 0.0073,-0.0371 0.0464,-0.0737 0.11129,-0.10785 0.06501,-0.0317 0.13141,-0.0542 0.19971,-0.0542 0,0 0.3824,0 0.3824,0 0.52681,0 0.7905,0.16699 0.7793,0.49506 0,0.042 -0.0049,0.0738 -0.0132,0.10309 0,0 -0.10449,0.29443 -0.10449,0.29443 -0.01471,0.044 0,0.0806 0.04049,0.11481 0.043,0.0322 0.09571,0.0492 0.16159,0.0492 0,0 0.75881,0 0.75881,0 0.061,0 0.11769,0.0122 0.1631,0.0415 0.04739,0.0317 0.06009,0.061 0.0522,0.0981 z" /><path
       id="path42"
       style="fill:#636363;fill-opacity:1;fill-rule:nonzero;stroke:none"
       d="m 108.5273,739.27008 c 0,0 -1.03169,3.1391 -1.03169,3.1391 -0.0352,0.10309 -0.13721,0.1568 -0.30031,0.1568 0,0 -0.44969,0 -0.44969,0 -0.061,0 -0.1138,-0.0171 -0.1543,-0.0464 -0.0405,-0.0298 -0.0552,-0.0664 -0.0464,-0.10547 0,0 1.02791,-3.14404 1.02791,-3.14404 0.0307,-0.20117 -0.148,-0.3042 -0.54149,-0.3042 0,0 -0.38092,0 -0.38092,0 -0.0615,0 -0.12399,0.0146 -0.18999,0.0493 -0.06,0.0269 -0.0981,0.061 -0.1069,0.1001 0,0 -1.0766,3.29882 -1.0766,3.29882 -0.0372,0.10309 -0.13631,0.15186 -0.3101,0.15186 0,0 -0.4487,0 -0.4487,0 -0.0586,0 -0.11139,-0.0171 -0.15189,-0.0464 -0.043,-0.0298 -0.0586,-0.0664 -0.0503,-0.10547 0,0 1.103,-3.3623 1.103,-3.3623 0.0328,-0.10541 0.1333,-0.15674 0.2979,-0.14942 0.0723,0 0.1284,-0.0171 0.1763,-0.0591 0.0454,-0.0366 0.0683,-0.0805 0.0698,-0.1347 0,-0.0783 -0.0503,-0.1153 -0.15329,-0.1153 -0.0611,0 -0.1114,-0.0146 -0.1519,-0.0439 -0.0405,-0.0293 -0.0527,-0.064 -0.0454,-0.0982 0,0 0.0713,-0.22796 0.0713,-0.22796 0.2388,-0.49714 0.85251,-0.75489 1.8364,-0.75489 0.0576,0 0.1094,0.0225 0.1524,0.0542 0.0424,0.0293 0.0625,0.0659 0.0527,0.10059 0,0 -0.0479,0.13971 -0.0479,0.13971 -0.007,0.0317 -0.0454,0.0683 -0.1142,0.10046 -0.0625,0.0293 -0.126,0.0464 -0.1885,0.0464 -0.38381,0 -0.63131,0.10553 -0.73391,0.30621 -0.0405,0.206 0.14072,0.30908 0.53911,0.30908 0.543,0 0.9263,0.0855 1.1543,0.25733 0.1431,0.10498 0.2119,0.24511 0.207,0.40179 0,0.0318 -0.004,0.0586 -0.0137,0.086 z" /><path
       id="path44"
       style="fill:#636363;fill-opacity:1;fill-rule:nonzero;stroke:none"
       d="m 91.09329,740.02197 c -0.09819,0.22071 -0.33938,0.32379 -0.73248,0.31641 0,0 -0.3764,0 -0.3764,0 -0.0625,0 -0.11622,-0.0195 -0.16161,-0.0517 -0.0406,-0.0342 -0.05769,-0.0708 -0.0455,-0.11517 0,0 0.30281,-0.90631 0.30281,-0.90631 0.09669,-0.19873 0.33789,-0.29932 0.72409,-0.29932 0.39209,0 0.5708,0.10303 0.53659,0.3042 0,0 -0.2475,0.75189 -0.2475,0.75189 z m 1.22312,-0.83789 c 0.0024,-0.15668 -0.06641,-0.2915 -0.20951,-0.40179 -0.22799,-0.17188 -0.6152,-0.25733 -1.1567,-0.25733 -0.98191,0 -1.5918,0.25 -1.8237,0.74512 0,0 -0.3223,0.98004 -0.3223,0.98004 -0.0293,0.0883 0.0347,0.13465 0.1978,0.14209 0.09761,0 0.14549,0.039 0.14299,0.11267 0,0.0542 -0.02438,0.10059 -0.07469,0.1446 -0.05031,0.0395 -0.103,0.0615 -0.16649,0.0542 -0.06491,-0.002 -0.13132,0.0146 -0.18901,0.0439 -0.0634,0.0293 -0.0952,0.0663 -0.1015,0.10309 0,0 -0.3272,0.97021 -0.3272,0.97021 -0.0073,0.0273 -0.01361,0.0566 -0.0146,0.0932 -0.0049,0.15918 0.0649,0.29145 0.2158,0.4043 0.2251,0.1665 0.6016,0.24756 1.1431,0.24756 0.98779,0 1.60251,-0.24756 1.8452,-0.74268 0,0 0.0381,-0.15674 0.0381,-0.15674 0.0073,-0.0367 -0.0074,-0.0713 -0.05029,-0.0981 -0.04051,-0.0293 -0.09181,-0.0439 -0.15431,-0.0439 0,0 -0.44139,0 -0.44139,0 -0.18702,0 -0.2901,0.0488 -0.3096,0.14208 0,0 -0.03951,0.15674 -0.03951,0.15674 -0.09819,0.19867 -0.3418,0.3042 -0.7364,0.3042 -0.3935,0 -0.5698,-0.10553 -0.5317,-0.3042 0,0 0.2266,-0.75238 0.2266,-0.75238 0.0991,-0.21051 0.3432,-0.31604 0.7314,-0.31604 0.98779,0.005 1.60299,-0.24017 1.8457,-0.73767 0,0 0.24271,-0.74713 0.24271,-0.74713 0.01219,-0.0274 0.01458,-0.0518 0.0195,-0.086 z" /><path
       id="path46"
       style="fill:#636363;fill-opacity:1;fill-rule:nonzero;stroke:none"
       d="m 100.62891,739.27008 c 0,0 -0.0488,0.15674 -0.0488,0.15674 -0.0396,0.10498 -0.13971,0.1543 -0.30031,0.14935 0,0 -0.4463,0 -0.4463,0 -0.0732,0 -0.12601,-0.0171 -0.17139,-0.0493 -0.04541,-0.0293 -0.06351,-0.0659 -0.04781,-0.1001 0,0 0.05901,-0.15186 0.05901,-0.15186 0.0318,-0.20605 -0.14841,-0.30908 -0.53801,-0.30908 -0.39119,0 -0.62849,0.10059 -0.7256,0.29389 0,0 -0.8306,2.56115 -0.8306,2.56115 -0.03659,0.20105 0.13971,0.30658 0.5332,0.30658 0.39451,0 0.6372,-0.10553 0.7349,-0.3042 0,0 0.04291,-0.15674 0.04291,-0.15674 0.0162,-0.0933 0.12019,-0.14208 0.31009,-0.14208 0,0 0.4385,0 0.4385,0 0.0615,0 0.1142,0.0146 0.1572,0.0439 0.04001,0.0269 0.0527,0.0615 0.04791,0.0981 0,0 -0.0372,0.15674 -0.0372,0.15674 -0.24512,0.5 -0.85641,0.74268 -1.84761,0.74268 -0.5381,0 -0.91649,-0.0811 -1.1431,-0.24756 -0.14839,-0.11285 -0.2182,-0.24512 -0.2148,-0.4043 0,-0.0366 0.0049,-0.0659 0.01511,-0.0932 0,0 0.83789,-2.55084 0.83789,-2.55084 0.2339,-0.49512 0.84329,-0.74512 1.8232,-0.74512 0.543,0 0.93269,0.0855 1.15919,0.25733 0.14362,0.11029 0.21192,0.24511 0.20711,0.40179 0,0.0342 -0.005,0.0586 -0.0147,0.086 z" /><path
       id="path48"
       style="fill:#636363;fill-opacity:1;fill-rule:nonzero;stroke:none"
       d="m 117.36081,739.27008 c 0,0 -1.03511,3.1391 -1.03511,3.1391 -0.0357,0.10803 -0.1348,0.1568 -0.2979,0.1568 0,0 -0.4521,0 -0.4521,0 -0.0591,0 -0.11281,-0.0171 -0.1543,-0.0464 -0.0396,-0.0298 -0.0591,-0.0664 -0.0444,-0.10547 0,0 1.02339,-3.14404 1.02339,-3.14404 0.0356,-0.20117 -0.1445,-0.3042 -0.53809,-0.3042 -0.3872,0 -0.62741,0.10059 -0.7227,0.29389 0,0 -1.0341,3.15435 -1.0341,3.15435 -0.0347,0.10309 -0.13629,0.15186 -0.3067,0.15186 0,0 -0.4448,0 -0.4448,0 -0.0625,0 -0.1152,-0.0171 -0.1558,-0.0464 -0.0439,-0.0298 -0.0595,-0.0664 -0.0473,-0.10547 0,0 1.03418,-3.14404 1.03418,-3.14404 0.229,-0.49512 0.83691,-0.74512 1.82422,-0.74512 0.54149,0 0.92619,0.0855 1.15329,0.25733 0.14551,0.10498 0.2153,0.24511 0.2119,0.40179 0,0.0342 -0.009,0.0586 -0.0137,0.086 z" /><path
       id="path50"
       style="fill:#636363;fill-opacity:1;fill-rule:nonzero;stroke:none"
       d="m 123.1812,741.82092 c -0.0967,0.20105 -0.3443,0.30658 -0.73491,0.30658 -0.39108,0 -0.5723,-0.10553 -0.53319,-0.30658 0,0 0.8306,-2.56115 0.8306,-2.56115 0.0932,-0.1933 0.33589,-0.29389 0.7231,-0.29389 0.397,0 0.57321,0.10303 0.54049,0.3042 0,0 -0.82609,2.55084 -0.82609,2.55084 z m 1.79631,-2.63684 c 0.007,-0.15668 -0.0649,-0.29681 -0.21042,-0.40179 -0.22458,-0.17188 -0.61179,-0.25733 -1.15579,-0.25733 -0.98,0 -1.5903,0.25 -1.8232,0.74512 0,0 -0.8379,2.55084 -0.8379,2.55084 -0.008,0.0273 -0.0151,0.059 -0.0151,0.0932 -0.005,0.15918 0.0673,0.29395 0.21481,0.4043 0.2251,0.1665 0.60251,0.24756 1.1431,0.24756 0.99121,0 1.604,-0.24268 1.8466,-0.74506 0,0 0.82329,-2.55084 0.82329,-2.55084 0.0122,-0.0274 0.0146,-0.0518 0.0146,-0.086 z" /><path
       id="path52"
       style="fill:#636363;fill-opacity:1;fill-rule:nonzero;stroke:none"
       d="m 130.9023,737.62561 c 0,0 -1.5576,4.77881 -1.5576,4.77881 -0.0332,0.10535 -0.1372,0.15668 -0.3037,0.15668 0,0 -0.4487,0 -0.4487,0 -0.0635,0 -0.1152,-0.0146 -0.1577,-0.0488 -0.0396,-0.0273 -0.0576,-0.0615 -0.0454,-0.0981 0,0 1.5708,-4.78851 1.5708,-4.78851 0.038,-0.10065 0.1333,-0.15192 0.29779,-0.14209 0,0 0.4424,0 0.4424,0 0.0635,0 0.11621,0.0146 0.1567,0.0439 0.0415,0.0293 0.0586,0.0659 0.0454,0.0982 z" /><path
       id="path54"
       style="fill:#636363;fill-opacity:1;fill-rule:nonzero;stroke:none"
       d="m 136.4678,741.82092 c -0.0982,0.20105 -0.3433,0.30658 -0.73539,0.30658 -0.39211,0 -0.57221,-0.10553 -0.53171,-0.30658 0,0 0.82809,-2.56115 0.82809,-2.56115 0.0957,-0.1933 0.33591,-0.29389 0.72712,-0.29389 0.38569,0 0.56829,0.10303 0.53509,0.3042 0,0 -0.8232,2.55084 -0.8232,2.55084 z m 1.79641,-2.63684 c 0.006,-0.15668 -0.065,-0.2915 -0.20951,-0.40179 -0.22799,-0.17188 -0.6118,-0.25733 -1.1558,-0.25733 -0.9863,0 -1.5927,0.25 -1.82711,0.74512 0,0 -0.8369,2.55322 -0.8369,2.55322 -0.008,0.0249 -0.0132,0.0566 -0.0132,0.0908 -0.009,0.15918 0.0659,0.29395 0.21341,0.40918 0.2226,0.16162 0.6025,0.24268 1.1455,0.24268 0.98781,0 1.6049,-0.24268 1.8442,-0.74268 0,0 0.82081,-2.55322 0.82081,-2.55322 0.0137,-0.0274 0.0161,-0.0518 0.0186,-0.086 z" /><path
       id="path56"
       style="fill:#636363;fill-opacity:1;fill-rule:nonzero;stroke:none"
       d="m 144.1665,741.43121 c -0.0366,0.10297 -0.13481,0.15717 -0.3061,0.15717 0,0 -0.3702,0 -0.3702,0 -0.39689,0 -0.57611,-0.10046 -0.5366,-0.30658 0,0 0.6519,-2.02203 0.6519,-2.02203 0.0903,-0.1933 0.33301,-0.29389 0.72259,-0.29389 0.39211,0 0.56891,0.10303 0.53661,0.3042 0,0 -0.6982,2.16113 -0.6982,2.16113 z m 1.67141,-2.24713 c 0.005,-0.15668 -0.064,-0.2915 -0.20852,-0.40179 -0.22799,-0.17188 -0.61479,-0.25733 -1.15429,-0.25733 -0.9849,0 -1.59281,0.25 -1.8257,0.74512 0,0 -0.6592,2.0141 -0.6592,2.0141 -0.007,0.0269 -0.0146,0.0591 -0.0146,0.0933 -0.005,0.15918 0.0683,0.29401 0.21581,0.4043 0.22509,0.1665 0.60249,0.25238 1.1465,0.25238 0.38769,0 0.48779,0.3233 0.45118,0.5318 -0.0762,0.19873 -0.31839,0.49512 -0.72809,0.49512 -0.3896,0 -0.5634,-0.10553 -0.52439,-0.31153 0,0 0.0371,-0.14935 0.0371,-0.14935 0.0171,-0.0953 -0.0493,-0.14703 -0.20599,-0.14703 0,0 -0.44091,0 -0.44091,0 -0.18409,0 -0.28469,0.0517 -0.3116,0.14703 0,0 -0.039,0.15717 -0.039,0.15717 -0.0122,0.49951 0.43601,0.74951 1.3281,0.74951 0.98781,-0.005 1.60299,-0.45069 1.8506,-0.95069 0,0 0.1396,-0.44629 0.1396,-0.44629 0.0171,-0.0415 0,-0.0757 -0.0395,-0.10742 -0.0391,-0.0322 -0.0928,-0.0469 -0.1568,-0.0469 -0.1054,0 -0.1567,-0.039 -0.1567,-0.11756 0.005,-0.12994 0.0908,-0.19104 0.2524,-0.18609 0.0611,0 0.125,-0.0147 0.18851,-0.0439 0.0615,-0.0274 0.0982,-0.0591 0.1055,-0.0957 0,0 0.73779,-2.24219 0.73779,-2.24219 0.007,-0.0274 0.0122,-0.0518 0.0122,-0.086 z" /><path
       id="path58"
       style="fill:#636363;fill-opacity:1;fill-rule:nonzero;stroke:none"
       d="m 153.9229,738.6817 c 0,0 -0.9292,2.83301 -0.9292,2.83301 -0.005,0.0342 -0.0416,0.0659 -0.1026,0.0957 -0.064,0.0269 -0.125,0.044 -0.189,0.044 -0.1616,-0.007 -0.24749,0.0561 -0.25239,0.18597 0,0.0786 0.0542,0.11518 0.15919,0.11518 0.0591,0 0.11521,0.0147 0.1548,0.0493 0.039,0.0293 0.0537,0.0684 0.039,0.10504 0,0 -0.1396,0.45118 -0.1396,0.45118 -0.2476,0.49511 -0.86281,0.94091 -1.8457,0.9458 -0.8965,0 -1.3452,-0.25 -1.33299,-0.74951 0,0 0.039,-0.15717 0.039,-0.15717 0.0274,-0.0953 0.12748,-0.14703 0.3116,-0.14703 0,0 0.44088,0 0.44088,0 0.15432,0 0.22561,0.0517 0.20121,0.14703 0,0 -0.0293,0.14935 -0.0293,0.14935 -0.042,0.206 0.13229,0.31153 0.5195,0.31153 0.41161,0 0.65669,-0.29639 0.73,-0.49512 0.0395,-0.20606 -0.066,-0.5318 -0.45321,-0.5318 -0.54389,0 -0.92379,-0.0859 -1.14689,-0.25 -0.14459,-0.10791 -0.21829,-0.24506 -0.21829,-0.40668 0.005,-0.0342 0.0122,-0.0664 0.022,-0.0908 0,0 0.8432,-2.59772 0.8432,-2.59772 0.007,-0.039 0.0415,-0.0737 0.1055,-0.10534 0.0708,-0.0293 0.12992,-0.044 0.19091,-0.044 0,0 0.4463,0 0.4463,0 0.1568,0.005 0.23,0.0513 0.20799,0.14209 0,0 -0.83049,2.60248 -0.83049,2.60248 -0.042,0.20374 0.1372,0.3042 0.5317,0.3042 0,0 0.37741,0 0.37741,0 0.16649,0 0.26709,-0.0517 0.29889,-0.15717 0,0 0.89939,-2.74225 0.89939,-2.74225 0.007,-0.039 0.039,-0.0737 0.10541,-0.10534 0.066,-0.0293 0.1299,-0.044 0.1861,-0.044 0,0 0.45599,0 0.45599,0 0.1519,0.005 0.22071,0.0513 0.20371,0.14209 z" /><path
       id="path60"
       style="fill:#636363;fill-opacity:1;fill-rule:nonzero;stroke:none"
       d="m 79.28131,733.54498 v 0.73291 h 76.76849 v -0.73541 l -76.76849,0.003 z" /></g></svg>