<svg version="1.2" xmlns="http://www.w3.org/2000/svg" viewBox="0 0 928 329" width="928" height="329">
	<title>Okko_Logo-svg</title>
	<style>
		.s0 { fill: #000000 } 
	</style>
	<g id="Layer">
		<path id="Layer" fill-rule="evenodd" class="s0" d="m255 202.3c0 70.2-57.1 126.7-127.6 126.7c-70.2 0-127.4-56.5-127.4-126.7c0-70.5 57.2-127 127.4-127c70.5 0 127.6 56.5 127.6 127zm-56.2 0c0-39.4-32.1-74-71.4-74c-39.1 0-71.2 34.6-71.2 74c0 39.1 32.1 73.7 71.2 73.7c39.3 0 71.4-34.6 71.4-73.7z" />
		<path id="Layer" class="s0" d="m26 27.9c0-15.2 12.7-27.9 28.3-27.9c15.3 0 28 12.7 28 27.9c0 15.6-12.7 28.3-28 28.3c-15.6 0-28.3-12.7-28.3-28.3z" />
		<path id="Layer" class="s0" d="m172.1 27.9c0-15.2 12.7-27.9 28.3-27.9c15.2 0 27.9 12.7 27.9 27.9c0 15.6-12.7 28.3-27.9 28.3c-15.6 0-28.3-12.7-28.3-28.3z" />
		<path id="Layer" class="s0" d="m99.1 27.9c0-15.2 12.7-27.9 28.3-27.9c15.2 0 27.9 12.7 27.9 27.9c0 15.6-12.7 28.3-27.9 28.3c-15.6 0-28.3-12.7-28.3-28.3z" />
		<path id="Layer" class="s0" d="m602.8 200.7l97.5 123.9h-66.4l-79.1-102v102h-56.2v-320.5h56.2v177.5l73.4-101.9h61.9z" />
		<path id="Layer" class="s0" d="m384.9 200.7l97.5 123.9h-66.4l-79-102v102h-56.2v-320.5h56.2v177.5l73.3-101.9h62z" />
		<path id="Layer" fill-rule="evenodd" class="s0" d="m928 202.3c0 70.2-57.2 126.7-127.7 126.7c-70.2 0-127.3-56.5-127.3-126.7c0-70.5 57.1-127 127.3-127c70.5 0 127.7 56.5 127.7 127zm-56.5 0c0-39.4-32.1-74-71.5-74c-39.1 0-71.1 34.6-71.1 74c0 39.1 32 73.7 71.1 73.7c39.4 0 71.5-34.6 71.5-73.7z" />
	</g>
</svg>